0
SECTION
2
HEADER
9
$INSUNITS
70
4
9
$ACADVER
1
AC1014
9
$HANDSEED
5
FFFF
0
ENDSEC
0
SECTION
2
TABLES
0
TABLE
2
VPORT
5
8
100
AcDbSymbolTable
0
ENDTAB
0
TABLE
2
LTYPE
5
5
100
AcDbSymbolTable
0
LTYPE
5
14
100
AcDbSymbolTableRecord
100
AcDbLinetypeTableRecord
2
BYBLOCK
70
0
0
LTYPE
5
15
100
AcDbSymbolTableRecord
100
AcDbLinetypeTableRecord
2
BYLAYER
70
0
0
ENDTAB
0
TABLE
2
LAYER
5
2
100
AcDbSymbolTable
70
2
0
LAYER
5
50
100
AcDbSymbolTableRecord
100
AcDbLayerTableRecord
2
0
70
0
6
CONTINUOUS
0
ENDTAB
0
TABLE
2
STYLE
5
3
100
AcDbSymbolTable
70
1
0
STYLE
5
11
100
AcDbSymbolTableRecord
100
AcDbTextStyleTableRecord
2
STANDARD
70
0
0
ENDTAB
0
TABLE
2
VIEW
5
6
100
AcDbSymbolTable
70
0
0
ENDTAB
0
TABLE
2
UCS
5
7
100
AcDbSymbolTable
70
0
0
ENDTAB
0
TABLE
2
APPID
5
9
100
AcDbSymbolTable
70
2
0
APPID
5
12
100
AcDbSymbolTableRecord
100
AcDbRegAppTableRecord
2
ACAD
70
0
0
ENDTAB
0
TABLE
2
DIMSTYLE
5
A
100
AcDbSymbolTable
70
1
0
ENDTAB
0
TABLE
2
BLOCK_RECORD
5
1
100
AcDbSymbolTable
70
1
0
BLOCK_RECORD
5
1F
100
AcDbSymbolTableRecord
100
AcDbBlockTableRecord
2
*MODEL_SPACE
0
BLOCK_RECORD
5
1B
100
AcDbSymbolTableRecord
100
AcDbBlockTableRecord
2
*PAPER_SPACE
0
ENDTAB
0
ENDSEC
0
SECTION
2
BLOCKS
0
BLOCK
5
20
100
AcDbEntity
100
AcDbBlockBegin
2
*MODEL_SPACE
0
ENDBLK
5
21
100
AcDbEntity
100
AcDbBlockEnd
0
BLOCK
5
1C
100
AcDbEntity
100
AcDbBlockBegin
2
*PAPER_SPACE
0
ENDBLK
5
1D
100
AcDbEntity
100
AcDbBlockEnd
0
ENDSEC
0
SECTION
2
ENTITIES
0
CIRCLE
5
100
100
AcDbEntity
8
0
100
AcDbCircle
10
-195.07457290884105
20
-165.49999999999824
30
0
40
1.0999999999999928
210
-2.4651903288156564e-32
220
6.1629758220391233e-33
230
1
0
CIRCLE
5
101
100
AcDbEntity
8
0
100
AcDbCircle
10
-42.574572908841908
20
-127.99999999999962
30
0
40
1.0999999999999928
210
-2.4651903288156564e-32
220
6.1629758220391233e-33
230
1
0
CIRCLE
5
102
100
AcDbEntity
8
0
100
AcDbCircle
10
-122.57457290884156
20
-47.999999999999012
30
0
40
1.0999999999999974
210
-2.4651903288156619e-32
220
-3.2842932757612861e-47
230
1
0
CIRCLE
5
103
100
AcDbEntity
8
0
100
AcDbCircle
10
-82.574572908841759
20
-87.999999999999318
30
0
40
1.0999999999999994
210
0
220
-0
230
1
0
CIRCLE
5
104
100
AcDbEntity
8
0
100
AcDbCircle
10
-42.574572908842015
20
-47.999999999999723
30
0
40
1.1000000000000019
210
0
220
-0
230
1
0
CIRCLE
5
105
100
AcDbEntity
8
0
100
AcDbCircle
10
-157.57457290884136
20
-87.999999999998664
30
0
40
1.1000000000000019
210
0
220
-0
230
1
0
CIRCLE
5
106
100
AcDbEntity
8
0
100
AcDbCircle
10
-5.0745729088422653
20
-10.500000000000078
30
0
40
1.1000000000000107
210
0
220
-0
230
1
0
LWPOLYLINE
5
107
100
AcDbEntity
8
0
100
AcDbPolyline
90
4
70
1
43
0.0
10
-200.07457290884102
20
-137.99999999999821
10
-203.07457290884102
20
-137.99999999999818
10
-203.07457290884099
20
-157.99999999999818
10
-200.07457290884102
20
-157.99999999999821
0
LWPOLYLINE
5
108
100
AcDbEntity
8
0
100
AcDbPolyline
90
4
70
1
43
0.0
10
-160.07457290884122
20
-170.49999999999855
10
-180.07457290884111
20
-170.49999999999838
10
-180.07457290884116
20
-173.49999999999838
10
-160.07457290884128
20
-173.49999999999855
0
CIRCLE
5
109
100
AcDbEntity
8
0
100
AcDbCircle
10
-5.074572908842061
20
-165.49999999999989
30
0
40
1.0999999999999928
210
-2.4651903288156564e-32
220
6.1629758220391233e-33
230
1
0
CIRCLE
5
110
100
AcDbEntity
8
0
100
AcDbCircle
10
-5.0745729088421587
20
-87.999999999999986
30
0
40
1.1000000000000107
210
0
220
-0
230
1
0
CIRCLE
5
111
100
AcDbEntity
8
0
100
AcDbCircle
10
-82.574572908841645
20
-165.49999999999923
30
0
40
1.0999999999999994
210
0
220
-0
230
1
0
CIRCLE
5
112
100
AcDbEntity
8
0
100
AcDbCircle
10
-122.57457290884146
20
-127.99999999999891
30
0
40
1.0999999999999974
210
-2.4651903288156619e-32
220
-3.2842932757612861e-47
230
1
0
CIRCLE
5
113
100
AcDbEntity
8
0
100
AcDbCircle
10
-162.57457290884119
20
-165.49999999999852
30
0
40
1.0999999999999928
210
-2.4651903288156564e-32
220
6.1629758220391233e-33
230
1
0
LWPOLYLINE
5
114
100
AcDbEntity
8
0
100
AcDbPolyline
90
4
70
1
43
0.0
10
-110.0745729088417
20
-2.4999999999991513
10
-110.0745729088417
20
-5.4999999999991545
10
-90.074572908841844
20
-5.4999999999993276
10
-90.074572908841844
20
-2.4999999999993214
0
LWPOLYLINE
5
115
100
AcDbEntity
8
0
100
AcDbPolyline
90
4
70
1
43
0.0
10
2.925427091157788
20
-78.000000000000085
10
-0.074572908842203134
20
-78.000000000000057
10
-0.074572908842178154
20
-98.000000000000057
10
2.9254270911578129
20
-98.000000000000099
0
LWPOLYLINE
5
116
100
AcDbEntity
8
0
100
AcDbPolyline
90
4
70
1
43
0.0
10
-90.074572908841631
20
-170.49999999999915
10
-110.07457290884153
20
-170.49999999999898
10
-110.0745729088415
20
-173.49999999999898
10
-90.074572908841631
20
-173.49999999999915
0
LWPOLYLINE
5
117
100
AcDbEntity
8
0
100
AcDbPolyline
90
4
70
1
43
0.0
10
-200.07457290884108
20
-77.999999999998309
10
-203.07457290884111
20
-77.99999999999828
10
-203.07457290884105
20
-97.999999999998252
10
-200.07457290884108
20
-97.99999999999828
0
LWPOLYLINE
5
118
100
AcDbEntity
8
0
100
AcDbPolyline
90
4
70
1
43
0.0
10
-0.07457290884228307
20
-18.000000000000103
10
-0.074572908842256425
20
-38.000000000000078
10
2.9254270911577329
20
-38.000000000000121
10
2.925427091157708
20
-18.000000000000142
0
LWPOLYLINE
5
119
100
AcDbEntity
8
0
100
AcDbPolyline
90
4
70
1
43
0.0
10
2.9254270911578324
20
-138.00000000000003
10
-0.074572908842158725
20
-138
10
-0.074572908842133745
20
-158
10
2.9254270911578573
20
-158
0
LWPOLYLINE
5
120
100
AcDbEntity
8
0
100
AcDbPolyline
90
4
70
1
43
0.0
10
-203.07457290884119
20
-37.999999999998309
10
-200.07457290884119
20
-37.999999999998337
10
-200.07457290884116
20
-17.999999999998366
10
-203.07457290884119
20
-17.999999999998327
0
LWPOLYLINE
5
121
100
AcDbEntity
8
0
100
AcDbPolyline
90
4
70
1
43
0.0
10
-20.074572908842004
20
-173.4999999999998
10
-20.074572908842008
20
-170.4999999999998
10
-40.074572908841873
20
-170.49999999999957
10
-40.074572908841887
20
-173.4999999999996
0
CIRCLE
5
122
100
AcDbEntity
8
0
100
AcDbCircle
10
-82.574572908841873
20
-10.499999999999403
30
0
40
1.0999999999999994
210
0
220
-0
230
1
0
CIRCLE
5
123
100
AcDbEntity
8
0
100
AcDbCircle
10
-195.07457290884128
20
-10.499999999998408
30
0
40
1.0999999999999928
210
-2.4651903288156564e-32
220
6.1629758220391233e-33
230
1
0
CIRCLE
5
124
100
AcDbEntity
8
0
100
AcDbCircle
10
-162.57457290884139
20
-10.499999999998693
30
0
40
1.1000000000000019
210
0
220
-0
230
1
0
LWPOLYLINE
5
125
100
AcDbEntity
8
0
100
AcDbPolyline
90
4
70
1
43
0.0
10
-40.074572908842107
20
-5.499999999999762
10
-20.074572908842228
20
-5.4999999999999005
10
-20.074572908842228
20
-2.4999999999998899
10
-40.074572908842107
20
-2.4999999999997553
0
LWPOLYLINE
5
126
100
AcDbEntity
8
0
100
AcDbPolyline
90
4
70
1
43
0.0
10
-180.07457290884133
20
-2.4999999999985474
10
-180.07457290884133
20
-5.4999999999985505
10
-160.07457290884147
20
-5.4999999999987237
10
-160.07457290884145
20
-2.4999999999987175
0
LWPOLYLINE
5
127
100
AcDbEntity
8
0
100
AcDbPolyline
90
4
70
1
43
0.0
10
5.4254270911578573
20
-175.99999999999997
10
-205.57457290884102
20
-175.99999999999812
10
-205.57457290884119
20
1.6612822228978492e-12
10
5.4254270911576761
20
-1.7763568394002505e-13
0
LWPOLYLINE
5
128
100
AcDbEntity
8
0
100
AcDbPolyline
90
28
70
1
43
0.0
10
9.9999999999996376
20
-38.00000000000022
10
12.999999999999623
20
-38.000000000000249
10
12.999999999999233
20
-78.000000000000242
10
9.9999999999992468
20
-78.000000000000213
10
9.9999999999990514
20
-98.000000000000185
10
12.999999999999037
20
-98.000000000000227
10
12.999999999998646
20
-138.00000000000017
10
9.9999999999986606
20
-138.00000000000014
10
9.9999999999984652
20
-158.00000000000011
10
12.999999999998451
20
-158.00000000000014
10
12.999999999998275
20
-176.00000000000011
10
27.999999999998195
20
-175.99999999999926
10
27.999999999998369
20
-157.99999999999935
10
30.999999999998373
20
-157.99999999999937
10
30.999999999998565
20
-137.99999999999937
10
27.999999999998565
20
-137.99999999999935
10
27.999999999998956
20
-97.999999999999346
10
30.999999999998956
20
-97.999999999999389
10
30.999999999999154
20
-77.999999999999375
10
27.999999999999151
20
-77.999999999999346
10
27.999999999999542
20
-37.999999999999325
10
30.999999999999545
20
-37.999999999999346
10
30.999999999999737
20
-17.999999999999339
10
27.999999999999737
20
-17.999999999999314
10
27.999999999999915
20
7.638334409421077e-13
10
12.999999999999993
20
-2.6201263381153694e-13
10
12.999999999999819
20
-18.000000000000288
10
9.999999999999833
20
-18.000000000000259
0
LWPOLYLINE
5
129
100
AcDbEntity
8
0
100
AcDbPolyline
90
4
70
1
43
0.0
10
-180.07457290884048
20
-5.4999999999983018
10
-160.07457290884048
20
-5.4999999999984759
10
-160.07457290884045
20
-2.4999999999984723
10
-180.07457290884042
20
-2.4999999999982983
0
LWPOLYLINE
5
130
100
AcDbEntity
8
0
100
AcDbPolyline
90
4
70
1
43
0.0
10
-20.07457290884048
20
-5.4999999999996518
10
-20.074572908840452
20
-2.4999999999996447
10
-40.074572908840437
20
-2.4999999999995026
10
-40.074572908840473
20
-5.4999999999995097
0
CIRCLE
5
131
100
AcDbEntity
8
0
100
AcDbCircle
10
-162.57457290884048
20
-10.499999999998444
30
0
40
1.1000000000000032
210
0
220
-0
230
1
0
CIRCLE
5
132
100
AcDbEntity
8
0
100
AcDbCircle
10
-195.07457290884048
20
-10.49999999999816
30
0
40
1.0999999999999943
210
0
220
-0
230
1
0
CIRCLE
5
133
100
AcDbEntity
8
0
100
AcDbCircle
10
-82.574572908840494
20
-10.499999999999154
30
0
40
1.100000000000001
210
0
220
-0
230
1
0
LWPOLYLINE
5
134
100
AcDbEntity
8
0
100
AcDbPolyline
90
4
70
1
43
0.0
10
-20.074572908841908
20
-170.49999999999972
10
-40.074572908841901
20
-170.49999999999952
10
-40.074572908841937
20
-173.49999999999952
10
-20.074572908841937
20
-173.49999999999977
0
LWPOLYLINE
5
135
100
AcDbEntity
8
0
100
AcDbPolyline
90
4
70
1
43
0.0
10
-200.07457290884076
20
-37.999999999998124
10
-200.07457290884059
20
-17.999999999998131
10
-203.07457290884057
20
-17.999999999998096
10
-203.07457290884076
20
-37.999999999998082
0
LWPOLYLINE
5
136
100
AcDbEntity
8
0
100
AcDbPolyline
90
4
70
1
43
0.0
10
-0.074572908841635199
20
-137.99999999999989
10
-0.07457290884180956
20
-157.99999999999989
10
2.9254270911581943
20
-157.99999999999991
10
2.9254270911583684
20
-137.99999999999994
0
LWPOLYLINE
5
137
100
AcDbEntity
8
0
100
AcDbPolyline
90
4
70
1
43
0.0
10
-0.074572908840729313
20
-37.999999999999872
10
2.9254270911592779
20
-37.999999999999901
10
2.9254270911594467
20
-17.999999999999901
10
-0.074572908840560503
20
-17.999999999999865
0
LWPOLYLINE
5
138
100
AcDbEntity
8
0
100
AcDbPolyline
90
4
70
1
43
0.0
10
-203.07457290884113
20
-77.99999999999811
10
-203.0745729088413
20
-97.99999999999811
10
-200.07457290884128
20
-97.999999999998124
10
-200.07457290884111
20
-77.999999999998124
0
LWPOLYLINE
5
139
100
AcDbEntity
8
0
100
AcDbPolyline
90
4
70
1
43
0.0
10
-110.07457290884193
20
-170.49999999999892
10
-110.07457290884196
20
-173.49999999999892
10
-90.074572908841958
20
-173.49999999999909
10
-90.07457290884193
20
-170.49999999999909
0
LWPOLYLINE
5
140
100
AcDbEntity
8
0
100
AcDbPolyline
90
4
70
1
43
0.0
10
-0.074572908841084529
20
-77.999999999999886
10
-0.074572908841258889
20
-97.999999999999901
10
2.9254270911587539
20
-97.999999999999915
10
2.925427091158928
20
-77.999999999999929
0
LWPOLYLINE
5
141
100
AcDbEntity
8
0
100
AcDbPolyline
90
4
70
1
43
0.0
10
-110.07457290884047
20
-5.4999999999989058
10
-90.07457290884048
20
-5.4999999999990798
10
-90.07457290884048
20
-2.4999999999990763
10
-110.07457290884045
20
-2.4999999999989022
0
CIRCLE
5
142
100
AcDbEntity
8
0
100
AcDbCircle
10
-162.57457290884184
20
-165.49999999999844
30
0
40
1.0999999999999943
210
0
220
-0
230
1
0
CIRCLE
5
143
100
AcDbEntity
8
0
100
AcDbCircle
10
-122.57457290884153
20
-127.99999999999881
30
0
40
1.0999999999999988
210
0
220
-0
230
1
0
CIRCLE
5
144
100
AcDbEntity
8
0
100
AcDbCircle
10
-82.574572908841844
20
-165.49999999999915
30
0
40
1.100000000000001
210
0
220
-0
230
1
0
CIRCLE
5
145
100
AcDbEntity
8
0
100
AcDbCircle
10
-5.074572908841164
20
-87.999999999999829
30
0
40
1.1000000000000121
210
0
220
-0
230
1
0
CIRCLE
5
146
100
AcDbEntity
8
0
100
AcDbCircle
10
-5.074572908841839
20
-165.49999999999983
30
0
40
1.0999999999999943
210
0
220
-0
230
1
0
LWPOLYLINE
5
147
100
AcDbEntity
8
0
100
AcDbPolyline
90
4
70
1
43
0.0
10
-180.07457290884187
20
-170.49999999999829
10
-180.0745729088419
20
-173.49999999999829
10
-160.0745729088419
20
-173.49999999999849
10
-160.0745729088419
20
-170.49999999999847
0
LWPOLYLINE
5
148
100
AcDbEntity
8
0
100
AcDbPolyline
90
4
70
1
43
0.0
10
-203.07457290884162
20
-137.99999999999812
10
-203.07457290884179
20
-157.9999999999981
10
-200.07457290884176
20
-157.99999999999812
10
-200.07457290884162
20
-137.99999999999812
0
CIRCLE
5
149
100
AcDbEntity
8
0
100
AcDbCircle
10
-5.0745729088404889
20
-10.499999999999829
30
0
40
1.1000000000000121
210
0
220
-0
230
1
0
CIRCLE
5
150
100
AcDbEntity
8
0
100
AcDbCircle
10
-157.57457290884116
20
-87.999999999998494
30
0
40
1.1000000000000032
210
0
220
-0
230
1
0
CIRCLE
5
151
100
AcDbEntity
8
0
100
AcDbCircle
10
-42.574572908840828
20
-47.99999999999951
30
0
40
1.1000000000000032
210
0
220
-0
230
1
0
CIRCLE
5
152
100
AcDbEntity
8
0
100
AcDbCircle
10
-82.574572908841176
20
-87.999999999999147
30
0
40
1.100000000000001
210
0
220
-0
230
1
0
CIRCLE
5
153
100
AcDbEntity
8
0
100
AcDbCircle
10
-122.57457290884082
20
-47.999999999998799
30
0
40
1.0999999999999988
210
0
220
-0
230
1
0
CIRCLE
5
154
100
AcDbEntity
8
0
100
AcDbCircle
10
-42.574572908841517
20
-127.99999999999952
30
0
40
1.0999999999999943
210
0
220
-0
230
1
0
CIRCLE
5
155
100
AcDbEntity
8
0
100
AcDbCircle
10
-195.07457290884184
20
-165.49999999999815
30
0
40
1.0999999999999943
210
0
220
-0
230
1
0
LWPOLYLINE
5
156
100
AcDbEntity
8
0
100
AcDbPolyline
90
4
70
1
43
0.0
10
-205.57457290884042
20
1.9184653865522705e-12
10
-205.57457290884196
20
-175.9999999999981
10
5.4254270911580722
20
-175.99999999999994
10
5.4254270911595626
20
7.9635157745841666e-14
0
LWPOLYLINE
5
157
100
AcDbEntity
8
0
100
AcDbPolyline
90
28
70
1
43
0.0
10
-110.07457290884051
20
-201.49308753029163
10
-110.07457290884051
20
-204.4930875302916
10
-90.074572908840651
20
-204.4930875302916
10
-90.074572908840679
20
-201.49308753029163
10
-40.074572908840921
20
-201.49308753029163
10
-40.074572908840906
20
-204.4930875302916
10
-20.074572908841027
20
-204.4930875302916
10
-20.074572908841045
20
-201.49308753029163
10
-0.074572908839188976
20
-201.49308753029163
10
-0.074572908839187768
20
-186.49308753029172
10
-20.074572908839169
20
-186.49308753029172
10
-20.074572908839166
20
-183.49308753029169
10
-40.074572908839144
20
-183.49308753029169
10
-40.074572908839144
20
-186.49308753029172
10
-90.074572908839201
20
-186.49308753029172
10
-90.074572908839201
20
-183.49308753029169
10
-110.07457290883917
20
-183.49308753029169
10
-110.07457290883914
20
-186.49308753029172
10
-160.07457290883912
20
-186.49308753029172
10
-160.07457290883912
20
-183.49308753029169
10
-180.07457290883912
20
-183.49308753029169
10
-180.07457290883912
20
-186.49308753029172
10
-200.07457290883895
20
-186.49308753029172
10
-200.07457290883895
20
-201.49308753029163
10
-180.07457290884014
20
-201.49308753029163
10
-180.07457290884014
20
-204.4930875302916
10
-160.07457290884022
20
-204.4930875302916
10
-160.07457290884025
20
-201.49308753029163
0
CIRCLE
5
158
100
AcDbEntity
8
0
100
AcDbCircle
10
-171.50000000000077
20
30.849999999999902
30
0
40
1.9999999999999929
210
0
220
0
230
1
0
LWPOLYLINE
5
159
100
AcDbEntity
8
0
100
AcDbPolyline
90
4
70
1
43
0.0
10
-186.69000000000074
20
132.52999999999989
10
-186.69000000000074
20
79.729999999999905
10
-193.77000000000078
20
79.729999999999905
10
-193.77000000000072
20
132.52999999999989
0
CIRCLE
5
160
100
AcDbEntity
8
0
100
AcDbCircle
10
-185.75000000000077
20
30.849999999999902
30
0
40
1.9999999999999929
210
0
220
0
230
1
0
CIRCLE
5
161
100
AcDbEntity
8
0
100
AcDbCircle
10
-171.50000000000077
20
43.599999999999909
30
0
40
1.9999999999999929
210
0
220
0
230
1
0
LWPOLYLINE
5
162
100
AcDbEntity
8
0
100
AcDbPolyline
90
4
70
1
43
0.0
10
-188.4399999850996
20
156.18000001490105
10
-188.4399999850996
20
141.47999998509874
10
-195.52000001490194
20
141.47999998509874
10
-195.52000001490194
20
156.18000001490105
0
LWPOLYLINE
5
163
100
AcDbEntity
8
0
100
AcDbPolyline
90
4
70
1
43
0.0
10
-185.65000001490191
20
172.24999998509875
10
-185.65000001490191
20
180.00000001490108
10
-176.24999998509958
20
180.00000001490108
10
-176.24999998509958
20
172.24999998509875
0
CIRCLE
5
164
100
AcDbEntity
8
0
100
AcDbCircle
10
-185.75000000000077
20
43.599999999999909
30
0
40
2.0000000000000284
210
0
220
0
230
1
0
LWPOLYLINE
5
165
100
AcDbEntity
8
0
100
AcDbPolyline
90
4
70
1
43
0.0
10
-203.00000000000009
20
89.999999999999929
10
-200.00000000000011
20
89.999999999999915
10
-199.99999999999989
20
109.99999999999991
10
-202.99999999999989
20
109.99999999999993
0
LWPOLYLINE
5
166
100
AcDbEntity
8
0
100
AcDbPolyline
90
4
70
1
43
0.0
10
-89.999999999999176
20
182.49999999999994
10
-89.999999999999176
20
185.49999999999994
10
-109.99999999999912
20
185.49999999999994
10
-109.99999999999915
20
182.49999999999989
0
CIRCLE
5
167
100
AcDbEntity
8
0
100
AcDbCircle
10
-162.50000000000074
20
22.499999999999929
30
0
40
1.0999999999999943
210
0
220
-0
230
1
0
LWPOLYLINE
5
168
100
AcDbEntity
8
0
100
AcDbPolyline
90
4
70
1
43
0.0
10
-199.99999999999926
20
169.99999999999989
10
-202.99999999999929
20
169.99999999999989
10
-202.99999999999943
20
149.99999999999994
10
-199.99999999999946
20
149.99999999999991
0
LWPOLYLINE
5
169
100
AcDbEntity
8
0
100
AcDbPolyline
90
4
70
1
43
0.0
10
-110.00000000000088
20
14.499999999999922
10
-90.000000000000881
20
14.499999999999922
10
-90.000000000000853
20
17.499999999999929
10
-110.00000000000085
20
17.499999999999929
0
LWPOLYLINE
5
170
100
AcDbEntity
8
0
100
AcDbPolyline
90
4
70
1
43
0.0
10
3.0000000000005485
20
149.99999999999989
10
3.0000000000007438
20
169.99999999999989
10
7.3669346768683476e-13
20
169.99999999999989
10
5.4123372450476381e-13
20
149.99999999999991
0
LWPOLYLINE
5
171
100
AcDbEntity
8
0
100
AcDbPolyline
90
4
70
1
43
0.0
10
-7.0221606307541151e-13
20
29.999999999999876
10
2.999999999999305
20
29.999999999999893
10
2.9999999999995004
20
49.999999999999872
10
-5.0675631989334056e-13
20
49.999999999999872
0
CIRCLE
5
172
100
AcDbEntity
8
0
100
AcDbCircle
10
-194.99999999999918
20
177.49999999999994
30
0
40
1.0999999999999943
210
0
220
-0
230
1
0
CIRCLE
5
173
100
AcDbEntity
8
0
100
AcDbCircle
10
-82.500000000000739
20
22.499999999999893
30
0
40
1.100000000000001
210
0
220
-0
230
1
0
LWPOLYLINE
5
174
100
AcDbEntity
8
0
100
AcDbPolyline
90
4
70
1
43
0.0
10
-8.0491169285323849e-14
20
89.999999999999872
10
2.9999999999999445
20
89.999999999999886
10
3.0000000000001399
20
109.99999999999989
10
1.1496857389674713e-13
20
109.99999999999989
0
LWPOLYLINE
5
175
100
AcDbEntity
8
0
100
AcDbPolyline
90
4
70
1
43
0.0
10
-203.00000000000065
20
29.999999999999929
10
-200.00000000000068
20
29.999999999999911
10
-200.00000000000045
20
49.999999999999915
10
-203.00000000000045
20
49.999999999999929
0
CIRCLE
5
176
100
AcDbEntity
8
0
100
AcDbCircle
10
-82.499999999999176
20
177.49999999999989
30
0
40
1.100000000000001
210
0
220
-0
230
1
0
LWPOLYLINE
5
177
100
AcDbEntity
8
0
100
AcDbPolyline
90
4
70
1
43
0.0
10
-19.99999999999914
20
185.49999999999994
10
-39.999999999999119
20
185.49999999999994
10
-39.999999999999176
20
182.49999999999994
10
-19.999999999999176
20
182.49999999999997
0
CIRCLE
5
178
100
AcDbEntity
8
0
100
AcDbCircle
10
-82.499999999999972
20
99.999999999999929
30
0
40
1.100000000000001
210
0
220
-0
230
1
0
CIRCLE
5
179
100
AcDbEntity
8
0
100
AcDbCircle
10
-4.9999999999991926
20
177.49999999999989
30
0
40
1.1000000000000121
210
0
220
-0
230
1
0
LWPOLYLINE
5
180
100
AcDbEntity
8
0
100
AcDbPolyline
90
4
70
1
43
0.0
10
-40.00000000000081
20
17.499999999999929
10
-40.000000000000846
20
14.499999999999922
10
-20.000000000000846
20
14.499999999999886
10
-20.000000000000824
20
17.499999999999893
0
CIRCLE
5
181
100
AcDbEntity
8
0
100
AcDbCircle
10
-42.499999999999567
20
139.99999999999994
30
0
40
1.1000000000000032
210
0
220
-0
230
1
0
CIRCLE
5
182
100
AcDbEntity
8
0
100
AcDbCircle
10
-162.49999999999918
20
177.49999999999994
30
0
40
1.1000000000000032
210
0
220
-0
230
1
0
CIRCLE
5
183
100
AcDbEntity
8
0
100
AcDbCircle
10
-157.49999999999997
20
99.999999999999915
30
0
40
1.1000000000000032
210
0
220
-0
230
1
0
LWPOLYLINE
5
184
100
AcDbEntity
8
0
100
AcDbPolyline
90
4
70
1
43
0.0
10
-180.00000000000088
20
14.499999999999886
10
-160.00000000000088
20
14.499999999999886
10
-160.00000000000074
20
17.499999999999893
10
-180.00000000000082
20
17.499999999999893
0
CIRCLE
5
185
100
AcDbEntity
8
0
100
AcDbCircle
10
-122.49999999999957
20
139.99999999999991
30
0
40
1.0999999999999988
210
0
220
-0
230
1
0
LWPOLYLINE
5
186
100
AcDbEntity
8
0
100
AcDbPolyline
90
4
70
1
43
0.0
10
-159.99999999999915
20
182.49999999999994
10
-159.99999999999912
20
185.49999999999994
10
-179.99999999999912
20
185.49999999999994
10
-179.99999999999912
20
182.49999999999989
0
CIRCLE
5
187
100
AcDbEntity
8
0
100
AcDbCircle
10
-42.500000000000384
20
59.999999999999915
30
0
40
1.0999999999999943
210
0
220
-0
230
1
0
CIRCLE
5
188
100
AcDbEntity
8
0
100
AcDbCircle
10
-122.5000000000004
20
59.999999999999915
30
0
40
1.0999999999999988
210
0
220
-0
230
1
0
CIRCLE
5
189
100
AcDbEntity
8
0
100
AcDbCircle
10
-5.0000000000007372
20
22.499999999999893
30
0
40
1.0999999999999943
210
0
220
-0
230
1
0
CIRCLE
5
190
100
AcDbEntity
8
0
100
AcDbCircle
10
-195.00000000000074
20
22.499999999999929
30
0
40
1.0999999999999943
210
0
220
-0
230
1
0
CIRCLE
5
191
100
AcDbEntity
8
0
100
AcDbCircle
10
-4.9999999999999742
20
99.999999999999929
30
0
40
1.1000000000000121
210
0
220
-0
230
1
0
LWPOLYLINE
5
192
100
AcDbEntity
8
0
100
AcDbPolyline
90
4
70
1
43
0.0
10
-205.50000000000085
20
11.999999999999922
10
5.4999999999991456
20
11.999999999999922
10
5.5000000000009308
20
187.99999999999994
10
-205.4999999999992
20
187.99999999999994
0
LWPOLYLINE
5
193
100
AcDbEntity
8
0
100
AcDbPolyline
90
28
70
1
43
0.0
10
31.685501791126221
20
149.91682765683566
10
31.685501791126395
20
169.91682765683561
10
28.685501791126399
20
169.91682765683564
10
28.685501791126548
20
187.91682765683572
10
13.685501791126633
20
187.91682765683703
10
13.685501791126484
20
169.91682765683692
10
10.68550179112648
20
169.91682765683692
10
10.685501791126299
20
149.91682765683694
10
13.685501791126317
20
149.91682765683689
10
13.685501791125974
20
109.91682765683689
10
10.685501791125965
20
109.9168276568369
10
10.685501791125784
20
89.916827656836887
10
13.685501791125784
20
89.916827656836858
10
13.685501791125441
20
49.916827656836858
10
10.685501791125432
20
49.91682765683688
10
10.685501791125251
20
29.91682765683688
10
13.685501791125269
20
29.916827656836858
10
13.685501791125116
20
11.916827656836976
10
28.685501791125034
20
11.916827656835846
10
28.68550179112518
20
29.916827656835785
10
31.685501791125169
20
29.916827656835757
10
31.685501791125347
20
49.916827656835743
10
28.68550179112535
20
49.916827656835771
10
28.685501791125695
20
89.916827656835707
10
31.685501791125684
20
89.916827656835693
10
31.685501791125862
20
109.91682765683566
10
28.685501791125883
20
109.91682765683569
10
28.685501791126228
20
149.91682765683566
0
LWPOLYLINE
5
194
100
AcDbEntity
8
0
100
AcDbPolyline
90
28
70
1
43
0.0
10
-39.869533253727603
20
198.65871943295988
10
-39.869533253727589
20
195.65871943295991
10
-19.869533253727706
20
195.65871943295991
10
-19.86953325372772
20
198.65871943295988
10
0.13046674627413352
20
198.65871943295988
10
0.13046674627413379
20
213.65871943295983
10
-19.869533253725848
20
213.65871943295983
10
-19.869533253725848
20
216.65871943295983
10
-39.869533253725827
20
216.65871943295983
10
-39.869533253725827
20
213.65871943295983
10
-89.869533253725876
20
213.65871943295983
10
-89.869533253725876
20
216.65871943295983
10
-109.86953325372583
20
216.65871943295983
10
-109.86953325372583
20
213.65871943295983
10
-159.86953325372582
20
213.65871943295983
10
-159.86953325372579
20
216.65871943295983
10
-179.86953325372579
20
216.65871943295983
10
-179.86953325372579
20
213.65871943295983
10
-199.86953325372565
20
213.65871943295983
10
-199.86953325372565
20
198.65871943295988
10
-179.86953325372681
20
198.65871943295988
10
-179.86953325372681
20
195.65871943295991
10
-159.86953325372693
20
195.65871943295991
10
-159.86953325372696
20
198.65871943295988
10
-109.86953325372718
20
198.65871943295988
10
-109.86953325372718
20
195.65871943295991
10
-89.869533253727326
20
195.65871943295991
10
-89.869533253727354
20
198.65871943295988
0
ENDSEC
0
SECTION
2
OBJECTS
0
DICTIONARY
5
C
100
AcDbDictionary
3
ACAD_GROUP
350
D
3
ACAD_MLINESTYLE
350
17
0
DICTIONARY
5
D
100
AcDbDictionary
0
DICTIONARY
5
1A
330
C
100
AcDbDictionary
0
DICTIONARY
5
17
100
AcDbDictionary
0
ENDSEC
0
EOF
