M48
; DRILL file {KiCad (5.1.4)-1} date 6/18/2021 10:58:41 PM
; FORMAT={-:-/ absolute / inch / decimal}
; #@! TF.CreationDate,2021-06-18T22:58:41+05:30
; #@! TF.GenerationSoftware,Kicad,Pcbnew,(5.1.4)-1
; #@! TF.FileFunction,Plated,1,2,PTH
FMAT,2
INCH
T1C0.0157
T2C0.0295
T3C0.0315
T4C0.0354
T5C0.0394
T6C0.0433
%
G90
G05
T1
X3.3996Y-7.1063
X4.2323Y-6.3189
X4.2323Y-7.1063
X5.0177Y-7.1102
X5.8071Y-7.1004
X6.5945Y-7.1161
X8.3511Y-7.2424
X8.3779Y-7.3116
X8.3816Y-6.4786
X8.4043Y-7.2425
X8.4311Y-6.4783
X8.4512Y-7.2425
T2
X7.4295Y-4.0157
X7.4795Y-4.0157
X7.5295Y-4.0157
X5.0673Y-7.1654
X5.1173Y-7.1654
X5.1673Y-7.1654
X3.4925Y-2.4409
X3.5425Y-2.4409
X3.5925Y-2.4409
X7.4295Y-6.378
X7.4795Y-6.378
X7.5295Y-6.378
X5.0673Y-7.9528
X5.1173Y-7.9528
X5.1673Y-7.9528
X3.4925Y-7.9528
X3.5425Y-7.9528
X3.5925Y-7.9528
X6.6421Y-5.5906
X6.6921Y-5.5906
X6.7421Y-5.5906
X5.0673Y-2.4409
X5.1173Y-2.4409
X5.1673Y-2.4409
X3.4925Y-3.2283
X3.5425Y-3.2283
X3.5925Y-3.2283
X2.7051Y-5.5906
X2.7551Y-5.5906
X2.8051Y-5.5906
X5.8547Y-7.9528
X5.9047Y-7.9528
X5.9547Y-7.9528
X5.8547Y-4.8031
X5.9047Y-4.8031
X5.9547Y-4.8031
X2.7067Y-4.8031
X2.7567Y-4.8031
X2.8067Y-4.8031
X5.8547Y-4.0157
X5.9047Y-4.0157
X5.9547Y-4.0157
X5.0673Y-3.2283
X5.1173Y-3.2283
X5.1673Y-3.2283
X3.4925Y-4.7953
X3.5425Y-4.7953
X3.5925Y-4.7953
X5.0673Y-4.8031
X5.1173Y-4.8031
X5.1673Y-4.8031
X8.2169Y-7.1654
X8.2669Y-7.1654
X8.3169Y-7.1654
X8.2169Y-4.8031
X8.2669Y-4.8031
X8.3169Y-4.8031
X6.6421Y-7.1654
X6.6921Y-7.1654
X6.7421Y-7.1654
X6.6421Y-6.378
X6.6921Y-6.378
X6.7421Y-6.378
X4.2799Y-4.8031
X4.3299Y-4.8031
X4.3799Y-4.8031
X4.2799Y-2.4409
X4.3299Y-2.4409
X4.3799Y-2.4409
X6.6421Y-7.9528
X6.6921Y-7.9528
X6.7421Y-7.9528
X5.0673Y-5.5906
X5.1173Y-5.5906
X5.1673Y-5.5906
X3.4925Y-6.3701
X3.5425Y-6.3701
X3.5925Y-6.3701
X6.6421Y-4.8031
X6.6921Y-4.8031
X6.7421Y-4.8031
X4.2799Y-6.378
X4.3299Y-6.378
X4.3799Y-6.378
X3.4925Y-4.0079
X3.5425Y-4.0079
X3.5925Y-4.0079
X8.2169Y-4.0157
X8.2669Y-4.0157
X8.3169Y-4.0157
X5.0673Y-4.0157
X5.1173Y-4.0157
X5.1673Y-4.0157
X3.4925Y-5.5827
X3.5425Y-5.5827
X3.5925Y-5.5827
X5.8547Y-7.1654
X5.9047Y-7.1654
X5.9547Y-7.1654
X2.7051Y-3.2283
X2.7551Y-3.2283
X2.8051Y-3.2283
X2.7051Y-2.4409
X2.7551Y-2.4409
X2.8051Y-2.4409
X4.2799Y-7.9528
X4.3299Y-7.9528
X4.3799Y-7.9528
X8.2169Y-7.9528
X8.2669Y-7.9528
X8.3169Y-7.9528
X8.2169Y-3.2283
X8.2669Y-3.2283
X8.3169Y-3.2283
X8.2169Y-6.378
X8.2669Y-6.378
X8.3169Y-6.378
X7.4295Y-4.8031
X7.4795Y-4.8031
X7.5295Y-4.8031
X8.2169Y-2.4409
X8.2669Y-2.4409
X8.3169Y-2.4409
X4.2799Y-4.0157
X4.3299Y-4.0157
X4.3799Y-4.0157
X7.4295Y-5.5906
X7.4795Y-5.5906
X7.5295Y-5.5906
X5.8547Y-2.4409
X5.9047Y-2.4409
X5.9547Y-2.4409
X6.6421Y-3.2283
X6.6921Y-3.2283
X6.7421Y-3.2283
X8.2169Y-5.5906
X8.2669Y-5.5906
X8.3169Y-5.5906
X3.4925Y-7.1654
X3.5425Y-7.1654
X3.5925Y-7.1654
X7.4295Y-7.1654
X7.4795Y-7.1654
X7.5295Y-7.1654
X4.2799Y-7.1654
X4.3299Y-7.1654
X4.3799Y-7.1654
X7.4295Y-3.2283
X7.4795Y-3.2283
X7.5295Y-3.2283
X2.7051Y-6.3681
X2.7551Y-6.3681
X2.8051Y-6.3681
X6.6421Y-2.4409
X6.6921Y-2.4409
X6.7421Y-2.4409
X5.8547Y-5.5906
X5.9047Y-5.5906
X5.9547Y-5.5906
X4.2799Y-3.2283
X4.3299Y-3.2283
X4.3799Y-3.2283
X2.7059Y-7.1575
X2.7559Y-7.1575
X2.8059Y-7.1575
X7.4295Y-7.9528
X7.4795Y-7.9528
X7.5295Y-7.9528
X5.8547Y-6.378
X5.9047Y-6.378
X5.9547Y-6.378
X5.8547Y-3.2283
X5.9047Y-3.2283
X5.9547Y-3.2283
X2.7051Y-4.0157
X2.7551Y-4.0157
X2.8051Y-4.0157
X5.0673Y-6.378
X5.1173Y-6.378
X5.1673Y-6.378
X2.7051Y-7.9449
X2.7551Y-7.9449
X2.8051Y-7.9449
X4.2799Y-5.5906
X4.3299Y-5.5906
X4.3799Y-5.5906
X7.4295Y-2.4409
X7.4795Y-2.4409
X7.5295Y-2.4409
X6.6421Y-4.0157
X6.6921Y-4.0157
X6.7421Y-4.0157
T3
X8.8386Y-6.9736
X8.8386Y-7.2736
X8.9386Y-6.9736
X8.9386Y-7.2736
X9.0386Y-6.9736
X9.0386Y-7.2736
X9.1386Y-6.9736
X9.1386Y-7.2736
X9.2386Y-6.9736
X9.2386Y-7.2736
X9.3386Y-6.9736
X9.3386Y-7.2736
X9.4386Y-6.9736
X9.4386Y-7.2736
X9.5386Y-6.9736
X9.5386Y-7.2736
X8.8386Y-7.574
X8.8386Y-7.874
X8.9386Y-7.574
X8.9386Y-7.874
X9.0386Y-7.574
X9.0386Y-7.874
X9.1386Y-7.574
X9.1386Y-7.874
X9.2386Y-7.574
X9.2386Y-7.874
X9.3386Y-7.574
X9.3386Y-7.874
X9.4386Y-7.574
X9.4386Y-7.874
X9.5386Y-7.574
X9.5386Y-7.874
X8.89Y-3.537
X8.89Y-3.937
X9.24Y-3.537
X9.24Y-3.937
X9.0669Y-3.537
X9.0669Y-3.937
X8.8425Y-6.7323
X8.8425Y-6.8307
T4
X9.3622Y-3.2465
X9.3622Y-3.3465
X8.9921Y-3.2465
X8.9921Y-3.3465
T5
X9.772Y-6.8406
X9.772Y-6.9406
X9.772Y-7.0406
X9.772Y-7.1406
X9.772Y-7.2406
X9.872Y-6.8406
X9.872Y-6.9406
X9.872Y-7.0406
X9.872Y-7.1406
X9.872Y-7.2406
X9.5276Y-3.7402
X9.7835Y-3.7402
X9.7028Y-4.4041
X9.7028Y-4.5041
X9.7028Y-4.6041
X9.7028Y-4.7041
X9.7028Y-4.8041
X9.7028Y-4.9041
X9.7028Y-5.0041
X9.7028Y-5.1041
X9.7028Y-5.2041
X9.7028Y-5.3041
X9.7028Y-5.4041
X9.7028Y-5.5041
X9.7028Y-5.6041
X9.7028Y-5.7041
X9.7028Y-5.8041
X9.7028Y-5.9041
X9.7028Y-6.0041
X9.7028Y-6.1041
X9.7028Y-6.2041
X9.7028Y-6.3041
X9.8028Y-4.4041
X9.8028Y-4.5041
X9.8028Y-4.6041
X9.8028Y-4.7041
X9.8028Y-4.8041
X9.8028Y-4.9041
X9.8028Y-5.0041
X9.8028Y-5.1041
X9.8028Y-5.2041
X9.8028Y-5.3041
X9.8028Y-5.4041
X9.8028Y-5.5041
X9.8028Y-5.6041
X9.8028Y-5.7041
X9.8028Y-5.8041
X9.8028Y-5.9041
X9.8028Y-6.0041
X9.8028Y-6.1041
X9.8028Y-6.2041
X9.8028Y-6.3041
X9.0913Y-8.0394
X9.0913Y-8.1394
X9.1913Y-8.0394
X9.1913Y-8.1394
X9.2913Y-8.0394
X9.2913Y-8.1394
T6
X8.9272Y-2.2638
X8.9272Y-2.5197
X9.1043Y-2.2638
X9.1043Y-2.5197
X9.4882Y-2.7657
X9.4882Y-3.0217
X9.6654Y-2.7657
X9.6654Y-3.0217
X8.9272Y-2.7657
X8.9272Y-3.0217
X9.1043Y-2.7657
X9.1043Y-3.0217
X9.4882Y-2.2638
X9.4882Y-2.5197
X9.6654Y-2.2638
X9.6654Y-2.5197
T0
M30
