%TF.GenerationSoftware,KiCad,Pcbnew,(5.1.4)-1*%
%TF.CreationDate,2021-06-18T22:58:37+05:30*%
%TF.ProjectId,board,626f6172-642e-46b6-9963-61645f706362,rev?*%
%TF.SameCoordinates,Original*%
%TF.FileFunction,Legend,Bot*%
%TF.FilePolarity,Positive*%
%FSLAX46Y46*%
G04 Gerber Fmt 4.6, Leading zero omitted, Abs format (unit mm)*
G04 Created by KiCad (PCBNEW (5.1.4)-1) date 2021-06-18 22:58:37*
%MOMM*%
%LPD*%
G04 APERTURE LIST*
%ADD10C,0.200000*%
%ADD11C,0.300000*%
G04 APERTURE END LIST*
D10*
X234719041Y-113341020D02*
G75*
G02X236100000Y-113300000I680959J341020D01*
G01*
X236789244Y-113000000D02*
G75*
G03X236789244Y-113000000I-1389244J0D01*
G01*
D11*
X236857142Y-115500000D02*
X233857142Y-115500000D01*
X234857142Y-116928571D02*
X236857142Y-116928571D01*
X235142857Y-116928571D02*
X235000000Y-117071428D01*
X234857142Y-117357142D01*
X234857142Y-117785714D01*
X235000000Y-118071428D01*
X235285714Y-118214285D01*
X236857142Y-118214285D01*
X234857142Y-119642857D02*
X237857142Y-119642857D01*
X235000000Y-119642857D02*
X234857142Y-119928571D01*
X234857142Y-120500000D01*
X235000000Y-120785714D01*
X235142857Y-120928571D01*
X235428571Y-121071428D01*
X236285714Y-121071428D01*
X236571428Y-120928571D01*
X236714285Y-120785714D01*
X236857142Y-120500000D01*
X236857142Y-119928571D01*
X236714285Y-119642857D01*
X234857142Y-123642857D02*
X236857142Y-123642857D01*
X234857142Y-122357142D02*
X236428571Y-122357142D01*
X236714285Y-122500000D01*
X236857142Y-122785714D01*
X236857142Y-123214285D01*
X236714285Y-123500000D01*
X236571428Y-123642857D01*
X234857142Y-124642857D02*
X234857142Y-125785714D01*
X233857142Y-125071428D02*
X236428571Y-125071428D01*
X236714285Y-125214285D01*
X236857142Y-125500000D01*
X236857142Y-125785714D01*
X235285714Y-127785714D02*
X235428571Y-128214285D01*
X235571428Y-128357142D01*
X235857142Y-128500000D01*
X236285714Y-128500000D01*
X236571428Y-128357142D01*
X236714285Y-128214285D01*
X236857142Y-127928571D01*
X236857142Y-126785714D01*
X233857142Y-126785714D01*
X233857142Y-127785714D01*
X234000000Y-128071428D01*
X234142857Y-128214285D01*
X234428571Y-128357142D01*
X234714285Y-128357142D01*
X235000000Y-128214285D01*
X235142857Y-128071428D01*
X235285714Y-127785714D01*
X235285714Y-126785714D01*
X236857142Y-130214285D02*
X236714285Y-129928571D01*
X236428571Y-129785714D01*
X233857142Y-129785714D01*
X236857142Y-132642857D02*
X235285714Y-132642857D01*
X235000000Y-132500000D01*
X234857142Y-132214285D01*
X234857142Y-131642857D01*
X235000000Y-131357142D01*
X236714285Y-132642857D02*
X236857142Y-132357142D01*
X236857142Y-131642857D01*
X236714285Y-131357142D01*
X236428571Y-131214285D01*
X236142857Y-131214285D01*
X235857142Y-131357142D01*
X235714285Y-131642857D01*
X235714285Y-132357142D01*
X235571428Y-132642857D01*
X236714285Y-135357142D02*
X236857142Y-135071428D01*
X236857142Y-134500000D01*
X236714285Y-134214285D01*
X236571428Y-134071428D01*
X236285714Y-133928571D01*
X235428571Y-133928571D01*
X235142857Y-134071428D01*
X235000000Y-134214285D01*
X234857142Y-134500000D01*
X234857142Y-135071428D01*
X235000000Y-135357142D01*
X236857142Y-136642857D02*
X233857142Y-136642857D01*
X235714285Y-136928571D02*
X236857142Y-137785714D01*
X234857142Y-137785714D02*
X236000000Y-136642857D01*
X235285714Y-140071428D02*
X235428571Y-140500000D01*
X235571428Y-140642857D01*
X235857142Y-140785714D01*
X236285714Y-140785714D01*
X236571428Y-140642857D01*
X236714285Y-140500000D01*
X236857142Y-140214285D01*
X236857142Y-139071428D01*
X233857142Y-139071428D01*
X233857142Y-140071428D01*
X234000000Y-140357142D01*
X234142857Y-140500000D01*
X234428571Y-140642857D01*
X234714285Y-140642857D01*
X235000000Y-140500000D01*
X235142857Y-140357142D01*
X235285714Y-140071428D01*
X235285714Y-139071428D01*
X236857142Y-142500000D02*
X236714285Y-142214285D01*
X236571428Y-142071428D01*
X236285714Y-141928571D01*
X235428571Y-141928571D01*
X235142857Y-142071428D01*
X235000000Y-142214285D01*
X234857142Y-142500000D01*
X234857142Y-142928571D01*
X235000000Y-143214285D01*
X235142857Y-143357142D01*
X235428571Y-143500000D01*
X236285714Y-143500000D01*
X236571428Y-143357142D01*
X236714285Y-143214285D01*
X236857142Y-142928571D01*
X236857142Y-142500000D01*
X236857142Y-144500000D02*
X234857142Y-146071428D01*
X234857142Y-144500000D02*
X236857142Y-146071428D01*
X233857142Y-147785714D02*
X233857142Y-148357142D01*
X234000000Y-148642857D01*
X234285714Y-148928571D01*
X234857142Y-149071428D01*
X235857142Y-149071428D01*
X236428571Y-148928571D01*
X236714285Y-148642857D01*
X236857142Y-148357142D01*
X236857142Y-147785714D01*
X236714285Y-147500000D01*
X236428571Y-147214285D01*
X235857142Y-147071428D01*
X234857142Y-147071428D01*
X234285714Y-147214285D01*
X234000000Y-147500000D01*
X233857142Y-147785714D01*
X234857142Y-151642857D02*
X236857142Y-151642857D01*
X234857142Y-150357142D02*
X236428571Y-150357142D01*
X236714285Y-150500000D01*
X236857142Y-150785714D01*
X236857142Y-151214285D01*
X236714285Y-151500000D01*
X236571428Y-151642857D01*
X234857142Y-152642857D02*
X234857142Y-153785714D01*
X233857142Y-153071428D02*
X236428571Y-153071428D01*
X236714285Y-153214285D01*
X236857142Y-153500000D01*
X236857142Y-153785714D01*
X234857142Y-154785714D02*
X237857142Y-154785714D01*
X235000000Y-154785714D02*
X234857142Y-155071428D01*
X234857142Y-155642857D01*
X235000000Y-155928571D01*
X235142857Y-156071428D01*
X235428571Y-156214285D01*
X236285714Y-156214285D01*
X236571428Y-156071428D01*
X236714285Y-155928571D01*
X236857142Y-155642857D01*
X236857142Y-155071428D01*
X236714285Y-154785714D01*
X234857142Y-158785714D02*
X236857142Y-158785714D01*
X234857142Y-157500000D02*
X236428571Y-157500000D01*
X236714285Y-157642857D01*
X236857142Y-157928571D01*
X236857142Y-158357142D01*
X236714285Y-158642857D01*
X236571428Y-158785714D01*
X234857142Y-159785714D02*
X234857142Y-160928571D01*
X233857142Y-160214285D02*
X236428571Y-160214285D01*
X236714285Y-160357142D01*
X236857142Y-160642857D01*
X236857142Y-160928571D01*
X228321428Y-105714285D02*
X228535714Y-106357142D01*
X228535714Y-107428571D01*
X228321428Y-107857142D01*
X228107142Y-108071428D01*
X227678571Y-108285714D01*
X227250000Y-108285714D01*
X226821428Y-108071428D01*
X226607142Y-107857142D01*
X226392857Y-107428571D01*
X226178571Y-106571428D01*
X225964285Y-106142857D01*
X225750000Y-105928571D01*
X225321428Y-105714285D01*
X224892857Y-105714285D01*
X224464285Y-105928571D01*
X224250000Y-106142857D01*
X224035714Y-106571428D01*
X224035714Y-107642857D01*
X224250000Y-108285714D01*
X228535714Y-110214285D02*
X225535714Y-110214285D01*
X225964285Y-110214285D02*
X225750000Y-110428571D01*
X225535714Y-110857142D01*
X225535714Y-111500000D01*
X225750000Y-111928571D01*
X226178571Y-112142857D01*
X228535714Y-112142857D01*
X226178571Y-112142857D02*
X225750000Y-112357142D01*
X225535714Y-112785714D01*
X225535714Y-113428571D01*
X225750000Y-113857142D01*
X226178571Y-114071428D01*
X228535714Y-114071428D01*
X228535714Y-118142857D02*
X226178571Y-118142857D01*
X225750000Y-117928571D01*
X225535714Y-117500000D01*
X225535714Y-116642857D01*
X225750000Y-116214285D01*
X228321428Y-118142857D02*
X228535714Y-117714285D01*
X228535714Y-116642857D01*
X228321428Y-116214285D01*
X227892857Y-116000000D01*
X227464285Y-116000000D01*
X227035714Y-116214285D01*
X226821428Y-116642857D01*
X226821428Y-117714285D01*
X226607142Y-118142857D01*
X228535714Y-120285714D02*
X225535714Y-120285714D01*
X226392857Y-120285714D02*
X225964285Y-120500000D01*
X225750000Y-120714285D01*
X225535714Y-121142857D01*
X225535714Y-121571428D01*
X225535714Y-122428571D02*
X225535714Y-124142857D01*
X224035714Y-123071428D02*
X227892857Y-123071428D01*
X228321428Y-123285714D01*
X228535714Y-123714285D01*
X228535714Y-124142857D01*
X228321428Y-131000000D02*
X228535714Y-130571428D01*
X228535714Y-129714285D01*
X228321428Y-129285714D01*
X228107142Y-129071428D01*
X227678571Y-128857142D01*
X226392857Y-128857142D01*
X225964285Y-129071428D01*
X225750000Y-129285714D01*
X225535714Y-129714285D01*
X225535714Y-130571428D01*
X225750000Y-131000000D01*
X228535714Y-132928571D02*
X224035714Y-132928571D01*
X228535714Y-134857142D02*
X226178571Y-134857142D01*
X225750000Y-134642857D01*
X225535714Y-134214285D01*
X225535714Y-133571428D01*
X225750000Y-133142857D01*
X225964285Y-132928571D01*
X228321428Y-138714285D02*
X228535714Y-138285714D01*
X228535714Y-137428571D01*
X228321428Y-137000000D01*
X227892857Y-136785714D01*
X226178571Y-136785714D01*
X225750000Y-137000000D01*
X225535714Y-137428571D01*
X225535714Y-138285714D01*
X225750000Y-138714285D01*
X226178571Y-138928571D01*
X226607142Y-138928571D01*
X227035714Y-136785714D01*
X228321428Y-140642857D02*
X228535714Y-141071428D01*
X228535714Y-141928571D01*
X228321428Y-142357142D01*
X227892857Y-142571428D01*
X227678571Y-142571428D01*
X227250000Y-142357142D01*
X227035714Y-141928571D01*
X227035714Y-141285714D01*
X226821428Y-140857142D01*
X226392857Y-140642857D01*
X226178571Y-140642857D01*
X225750000Y-140857142D01*
X225535714Y-141285714D01*
X225535714Y-141928571D01*
X225750000Y-142357142D01*
X228321428Y-144285714D02*
X228535714Y-144714285D01*
X228535714Y-145571428D01*
X228321428Y-146000000D01*
X227892857Y-146214285D01*
X227678571Y-146214285D01*
X227250000Y-146000000D01*
X227035714Y-145571428D01*
X227035714Y-144928571D01*
X226821428Y-144500000D01*
X226392857Y-144285714D01*
X226178571Y-144285714D01*
X225750000Y-144500000D01*
X225535714Y-144928571D01*
X225535714Y-145571428D01*
X225750000Y-146000000D01*
X228535714Y-148142857D02*
X224035714Y-148142857D01*
X225750000Y-148142857D02*
X225535714Y-148571428D01*
X225535714Y-149428571D01*
X225750000Y-149857142D01*
X225964285Y-150071428D01*
X226392857Y-150285714D01*
X227678571Y-150285714D01*
X228107142Y-150071428D01*
X228321428Y-149857142D01*
X228535714Y-149428571D01*
X228535714Y-148571428D01*
X228321428Y-148142857D01*
X228535714Y-152857142D02*
X228321428Y-152428571D01*
X228107142Y-152214285D01*
X227678571Y-151999999D01*
X226392857Y-151999999D01*
X225964285Y-152214285D01*
X225750000Y-152428571D01*
X225535714Y-152857142D01*
X225535714Y-153499999D01*
X225750000Y-153928571D01*
X225964285Y-154142857D01*
X226392857Y-154357142D01*
X227678571Y-154357142D01*
X228107142Y-154142857D01*
X228321428Y-153928571D01*
X228535714Y-153499999D01*
X228535714Y-152857142D01*
X228535714Y-158214285D02*
X226178571Y-158214285D01*
X225750000Y-157999999D01*
X225535714Y-157571428D01*
X225535714Y-156714285D01*
X225750000Y-156285714D01*
X228321428Y-158214285D02*
X228535714Y-157785714D01*
X228535714Y-156714285D01*
X228321428Y-156285714D01*
X227892857Y-156071428D01*
X227464285Y-156071428D01*
X227035714Y-156285714D01*
X226821428Y-156714285D01*
X226821428Y-157785714D01*
X226607142Y-158214285D01*
X228535714Y-160357142D02*
X225535714Y-160357142D01*
X226392857Y-160357142D02*
X225964285Y-160571428D01*
X225750000Y-160785714D01*
X225535714Y-161214285D01*
X225535714Y-161642857D01*
X228535714Y-165071428D02*
X224035714Y-165071428D01*
X228321428Y-165071428D02*
X228535714Y-164642857D01*
X228535714Y-163785714D01*
X228321428Y-163357142D01*
X228107142Y-163142857D01*
X227678571Y-162928571D01*
X226392857Y-162928571D01*
X225964285Y-163142857D01*
X225750000Y-163357142D01*
X225535714Y-163785714D01*
X225535714Y-164642857D01*
X225750000Y-165071428D01*
M02*
